<svg width="170" height="170" viewBox="0 0 170 170" fill="none" xmlns="http://www.w3.org/2000/svg">
<g filter="url(#filter0_d_1_4)">
<mask id="path-1-inside-1_1_4" fill="white">
<path d="M161.302 108.183C167.098 91.9144 167.543 74.2188 162.57 57.6795C157.598 41.1403 147.469 26.6232 133.663 16.2474C119.857 5.87163 103.096 0.180311 85.8259 0.00421089C68.5563 -0.171889 51.6824 5.17645 37.6674 15.2685C23.6524 25.3606 13.2299 39.6681 7.92136 56.1026C2.61281 72.537 2.6961 90.238 8.15908 106.622C13.6221 123.005 24.1787 137.214 38.2881 147.174C52.3975 157.134 69.3209 162.323 86.5881 161.984L85.8338 123.518C76.7683 123.695 67.8834 120.971 60.4758 115.742C53.0682 110.513 47.5259 103.053 44.6577 94.4517C41.7896 85.85 41.7459 76.5568 44.5329 67.9286C47.32 59.3003 52.7919 51.7888 60.1499 46.4903C67.5079 41.1919 76.3669 38.3839 85.4336 38.4764C94.5004 38.5688 103.3 41.5568 110.549 47.0042C117.797 52.4516 123.115 60.0732 125.725 68.7565C128.336 77.4398 128.102 86.7302 125.06 95.2715L161.302 108.183Z"/>
</mask>
<path d="M161.302 108.183C167.098 91.9144 167.543 74.2188 162.57 57.6795C157.598 41.1403 147.469 26.6232 133.663 16.2474C119.857 5.87163 103.096 0.180311 85.8259 0.00421089C68.5563 -0.171889 51.6824 5.17645 37.6674 15.2685C23.6524 25.3606 13.2299 39.6681 7.92136 56.1026C2.61281 72.537 2.6961 90.238 8.15908 106.622C13.6221 123.005 24.1787 137.214 38.2881 147.174C52.3975 157.134 69.3209 162.323 86.5881 161.984L85.8338 123.518C76.7683 123.695 67.8834 120.971 60.4758 115.742C53.0682 110.513 47.5259 103.053 44.6577 94.4517C41.7896 85.85 41.7459 76.5568 44.5329 67.9286C47.32 59.3003 52.7919 51.7888 60.1499 46.4903C67.5079 41.1919 76.3669 38.3839 85.4336 38.4764C94.5004 38.5688 103.3 41.5568 110.549 47.0042C117.797 52.4516 123.115 60.0732 125.725 68.7565C128.336 77.4398 128.102 86.7302 125.06 95.2715L161.302 108.183Z" fill="url(#paint0_radial_1_4)"/>
<path d="M161.302 108.183C167.098 91.9144 167.543 74.2188 162.57 57.6795C157.598 41.1403 147.469 26.6232 133.663 16.2474C119.857 5.87163 103.096 0.180311 85.8259 0.00421089C68.5563 -0.171889 51.6824 5.17645 37.6674 15.2685C23.6524 25.3606 13.2299 39.6681 7.92136 56.1026C2.61281 72.537 2.6961 90.238 8.15908 106.622C13.6221 123.005 24.1787 137.214 38.2881 147.174C52.3975 157.134 69.3209 162.323 86.5881 161.984L85.8338 123.518C76.7683 123.695 67.8834 120.971 60.4758 115.742C53.0682 110.513 47.5259 103.053 44.6577 94.4517C41.7896 85.85 41.7459 76.5568 44.5329 67.9286C47.32 59.3003 52.7919 51.7888 60.1499 46.4903C67.5079 41.1919 76.3669 38.3839 85.4336 38.4764C94.5004 38.5688 103.3 41.5568 110.549 47.0042C117.797 52.4516 123.115 60.0732 125.725 68.7565C128.336 77.4398 128.102 86.7302 125.06 95.2715L161.302 108.183Z" stroke="#0A5BF1" stroke-width="4" mask="url(#path-1-inside-1_1_4)"/>
</g>
<defs>
<filter id="filter0_d_1_4" x="0" y="0" width="170" height="170" filterUnits="userSpaceOnUse" color-interpolation-filters="sRGB">
<feFlood flood-opacity="0" result="BackgroundImageFix"/>
<feColorMatrix in="SourceAlpha" type="matrix" values="0 0 0 0 0 0 0 0 0 0 0 0 0 0 0 0 0 0 127 0" result="hardAlpha"/>
<feOffset dy="4"/>
<feGaussianBlur stdDeviation="2"/>
<feComposite in2="hardAlpha" operator="out"/>
<feColorMatrix type="matrix" values="0 0 0 0 0 0 0 0 0 0 0 0 0 0 0 0 0 0 0.25 0"/>
<feBlend mode="normal" in2="BackgroundImageFix" result="effect1_dropShadow_1_4"/>
<feBlend mode="normal" in="SourceGraphic" in2="effect1_dropShadow_1_4" result="shape"/>
</filter>
<radialGradient id="paint0_radial_1_4" cx="0" cy="0" r="1" gradientUnits="userSpaceOnUse" gradientTransform="translate(85 81) rotate(90) scale(81)">
<stop stop-color="#26CDE3"/>
<stop offset="1" stop-color="#0036F4"/>
</radialGradient>
</defs>
</svg>
