<svg width="170" height="177" viewBox="0 0 170 177" fill="none" xmlns="http://www.w3.org/2000/svg">
<g filter="url(#filter0_i_1_5)">
<path d="M8.09028 70.5855C13.4596 54.3368 23.8372 40.206 37.7346 30.2202C51.6319 20.2344 68.3348 14.9067 85.4475 15.0012C102.56 15.0958 119.203 20.6077 132.989 30.7464C146.775 40.8852 156.996 55.1297 162.186 71.4368L103.388 90.1482C102.152 86.2634 99.7169 82.8698 96.4326 80.4545C93.1483 78.0391 89.1834 76.726 85.1066 76.7034C81.0298 76.6809 77.0506 77.9502 73.7398 80.3291C70.429 82.7081 67.9567 86.0745 66.6776 89.9454L8.09028 70.5855Z" fill="url(#paint0_radial_1_5)"/>
</g>
<g filter="url(#filter1_d_1_5)">
<mask id="path-2-inside-1_1_5" fill="white">
<path d="M161.302 108.183C167.098 91.9144 167.543 74.2188 162.57 57.6795C157.598 41.1403 147.469 26.6232 133.663 16.2474C119.857 5.87163 103.096 0.180311 85.8259 0.00421089C68.5563 -0.171889 51.6824 5.17645 37.6674 15.2685C23.6524 25.3606 13.2299 39.6681 7.92136 56.1026C2.61281 72.537 2.6961 90.238 8.15908 106.622C13.6221 123.005 24.1787 137.214 38.2881 147.174C52.3975 157.134 69.3209 162.323 86.5881 161.984L85.8338 123.518C76.7683 123.695 67.8834 120.971 60.4758 115.742C53.0682 110.513 47.5259 103.053 44.6577 94.4517C41.7896 85.85 41.7459 76.5568 44.5329 67.9286C47.32 59.3003 52.7919 51.7888 60.1499 46.4903C67.5079 41.1919 76.3669 38.3839 85.4336 38.4764C94.5004 38.5688 103.3 41.5568 110.549 47.0042C117.797 52.4516 123.115 60.0732 125.725 68.7565C128.336 77.4398 128.102 86.7302 125.06 95.2715L161.302 108.183Z"/>
</mask>
<path d="M161.302 108.183C167.098 91.9144 167.543 74.2188 162.57 57.6795C157.598 41.1403 147.469 26.6232 133.663 16.2474C119.857 5.87163 103.096 0.180311 85.8259 0.00421089C68.5563 -0.171889 51.6824 5.17645 37.6674 15.2685C23.6524 25.3606 13.2299 39.6681 7.92136 56.1026C2.61281 72.537 2.6961 90.238 8.15908 106.622C13.6221 123.005 24.1787 137.214 38.2881 147.174C52.3975 157.134 69.3209 162.323 86.5881 161.984L85.8338 123.518C76.7683 123.695 67.8834 120.971 60.4758 115.742C53.0682 110.513 47.5259 103.053 44.6577 94.4517C41.7896 85.85 41.7459 76.5568 44.5329 67.9286C47.32 59.3003 52.7919 51.7888 60.1499 46.4903C67.5079 41.1919 76.3669 38.3839 85.4336 38.4764C94.5004 38.5688 103.3 41.5568 110.549 47.0042C117.797 52.4516 123.115 60.0732 125.725 68.7565C128.336 77.4398 128.102 86.7302 125.06 95.2715L161.302 108.183Z" fill="url(#paint1_radial_1_5)"/>
<path d="M161.302 108.183C167.098 91.9144 167.543 74.2188 162.57 57.6795C157.598 41.1403 147.469 26.6232 133.663 16.2474C119.857 5.87163 103.096 0.180311 85.8259 0.00421089C68.5563 -0.171889 51.6824 5.17645 37.6674 15.2685C23.6524 25.3606 13.2299 39.6681 7.92136 56.1026C2.61281 72.537 2.6961 90.238 8.15908 106.622C13.6221 123.005 24.1787 137.214 38.2881 147.174C52.3975 157.134 69.3209 162.323 86.5881 161.984L85.8338 123.518C76.7683 123.695 67.8834 120.971 60.4758 115.742C53.0682 110.513 47.5259 103.053 44.6577 94.4517C41.7896 85.85 41.7459 76.5568 44.5329 67.9286C47.32 59.3003 52.7919 51.7888 60.1499 46.4903C67.5079 41.1919 76.3669 38.3839 85.4336 38.4764C94.5004 38.5688 103.3 41.5568 110.549 47.0042C117.797 52.4516 123.115 60.0732 125.725 68.7565C128.336 77.4398 128.102 86.7302 125.06 95.2715L161.302 108.183Z" stroke="#0A5BF1" stroke-width="4" mask="url(#path-2-inside-1_1_5)"/>
</g>
<defs>
<filter id="filter0_i_1_5" x="8.09029" y="15" width="160.096" height="81.1482" filterUnits="userSpaceOnUse" color-interpolation-filters="sRGB">
<feFlood flood-opacity="0" result="BackgroundImageFix"/>
<feBlend mode="normal" in="SourceGraphic" in2="BackgroundImageFix" result="shape"/>
<feColorMatrix in="SourceAlpha" type="matrix" values="0 0 0 0 0 0 0 0 0 0 0 0 0 0 0 0 0 0 127 0" result="hardAlpha"/>
<feMorphology radius="1" operator="dilate" in="SourceAlpha" result="effect1_innerShadow_1_5"/>
<feOffset dx="30" dy="35"/>
<feGaussianBlur stdDeviation="3.5"/>
<feComposite in2="hardAlpha" operator="arithmetic" k2="-1" k3="1"/>
<feColorMatrix type="matrix" values="0 0 0 0 0.00791663 0 0 0 0 0.633333 0 0 0 0 0.145508 0 0 0 0.34 0"/>
<feBlend mode="normal" in2="shape" result="effect1_innerShadow_1_5"/>
</filter>
<filter id="filter1_d_1_5" x="0" y="0" width="170" height="170" filterUnits="userSpaceOnUse" color-interpolation-filters="sRGB">
<feFlood flood-opacity="0" result="BackgroundImageFix"/>
<feColorMatrix in="SourceAlpha" type="matrix" values="0 0 0 0 0 0 0 0 0 0 0 0 0 0 0 0 0 0 127 0" result="hardAlpha"/>
<feOffset dy="4"/>
<feGaussianBlur stdDeviation="2"/>
<feComposite in2="hardAlpha" operator="out"/>
<feColorMatrix type="matrix" values="0 0 0 0 0 0 0 0 0 0 0 0 0 0 0 0 0 0 0.25 0"/>
<feBlend mode="normal" in2="BackgroundImageFix" result="effect1_dropShadow_1_5"/>
<feBlend mode="normal" in="SourceGraphic" in2="effect1_dropShadow_1_5" result="shape"/>
</filter>
<radialGradient id="paint0_radial_1_5" cx="0" cy="0" r="1" gradientUnits="userSpaceOnUse" gradientTransform="translate(85 76.5) rotate(90) scale(41)">
<stop stop-color="#33B9F2" stop-opacity="0.85"/>
<stop offset="1" stop-color="#7101FF"/>
</radialGradient>
<radialGradient id="paint1_radial_1_5" cx="0" cy="0" r="1" gradientUnits="userSpaceOnUse" gradientTransform="translate(85 81) rotate(90) scale(81)">
<stop stop-color="#26CDE3"/>
<stop offset="1" stop-color="#0036F4"/>
</radialGradient>
</defs>
</svg>
